<?xml version="1.0" encoding="UTF-8"?>
<svg width="40px" height="48px" viewBox="0 0 40 48" version="1.1" xmlns="http://www.w3.org/2000/svg" xmlns:xlink="http://www.w3.org/1999/xlink">
    <!-- Generator: Sketch 53.2 (72643) - https://sketchapp.com -->
    <title>icons8-basura</title>
    <desc>Created with Sketch.</desc>
    <g id="Page-1" stroke="none" stroke-width="1" fill="none" fill-rule="evenodd">
        <g id="icons8-basura" fill="#BBBBBB" fill-rule="nonzero">
            <path d="M16,0 C14.953126,0 13.882812,0.367188 13.125,1.125 C12.367188,1.882812 12,2.953126 12,4 L12,6 L0,6 L0,10 L2,10 L2,42 C2,45.289062 4.710938,48 8,48 L32,48 C35.289062,48 38,45.289062 38,42 L38,10 L40,10 L40,6 L28,6 L28,4 C28,2.953126 27.632812,1.882812 26.875,1.125 C26.117188,0.367188 25.046876,0 24,0 L16,0 Z M16,4 L24,4 L24,6 L16,6 L16,4 Z M6,10 L34,10 L34,42 C34,43.109376 33.109376,44 32,44 L8,44 C6.890626,44 6,43.109376 6,42 L6,10 Z M10,16 L10,38 L14,38 L14,16 L10,16 Z M18,16 L18,38 L22,38 L22,16 L18,16 Z M26,16 L26,38 L30,38 L30,16 L26,16 Z" id="Shape"></path>
        </g>
    </g>
</svg>